HIERARCHY
ROOT root     
{
	OFFSET 0.0000 0.0000 0.0000
	CHANNELS 6 Xposition Yposition Zposition Zrotation Yrotation Xrotation
	JOINT pelvis   
	{
		OFFSET 0.0000 0.0000 0.0000
		CHANNELS 3 Zrotation Yrotation Xrotation
		JOINT thorax   
		{
			OFFSET 0.0000 23.0750 -5.0000
			CHANNELS 3 Zrotation Yrotation Xrotation
			JOINT rclavicle
			{
				OFFSET 0.0000 28.0009 0.0000
				CHANNELS 3 Zrotation Yrotation Xrotation
				JOINT rhumerus 
				{
					OFFSET -18.5725 5.5939 0.0000
					CHANNELS 3 Zrotation Yrotation Xrotation
					JOINT rradius  
					{
						OFFSET -24.8459 0.0000 0.0000
						CHANNELS 3 Zrotation Yrotation Xrotation
						JOINT rhand    
						{
							OFFSET -24.5477 0.0000 0.0000
							CHANNELS 3 Zrotation Yrotation Xrotation
							End Site
							{
								OFFSET -8.1826 0.0000 0.0000
							}
						}
					}
				}
			}
			JOINT lclavicle
			{
				OFFSET 0.0000 28.0009 0.0000
				CHANNELS 3 Zrotation Yrotation Xrotation
				JOINT lhumerus 
				{
					OFFSET 18.5725 5.5939 0.0000
					CHANNELS 3 Zrotation Yrotation Xrotation
					JOINT lradius  
					{
						OFFSET 24.8459 0.0000 0.0000
						CHANNELS 3 Zrotation Yrotation Xrotation
						JOINT lhand    
						{
							OFFSET 24.5477 0.0000 0.0000
							CHANNELS 3 Zrotation Yrotation Xrotation
							End Site
							{
								OFFSET 8.1826 0.0000 0.0000
							}
						}
					}
				}
			}
			JOINT head     
			{
				OFFSET 0.0000 35.2030 0.0000
				CHANNELS 3 Zrotation Yrotation Xrotation
				End Site
				{
					OFFSET 0.0000 11.7343 0.0000
				}
			}
		}
		JOINT rfemur   
		{
			OFFSET -8.2817 0.0000 0.0000
			CHANNELS 3 Zrotation Yrotation Xrotation
			JOINT rtibia   
			{
				OFFSET 0.0000 -43.3627 0.0000
				CHANNELS 3 Zrotation Yrotation Xrotation
				JOINT rfoot    
				{
					OFFSET 0.0000 -38.2947 0.0000
					CHANNELS 3 Zrotation Yrotation Xrotation
					JOINT rtoes    
					{
						OFFSET 0.0000 0.0000 16.6054
						CHANNELS 3 Zrotation Yrotation Xrotation
						End Site
						{
							OFFSET 0.0000 0.0000 5.5351
						}
					}
				}
			}
		}
		JOINT lfemur   
		{
			OFFSET 8.2817 0.0000 0.0000
			CHANNELS 3 Zrotation Yrotation Xrotation
			JOINT ltibia   
			{
				OFFSET 0.0000 -43.3627 0.0000
				CHANNELS 3 Zrotation Yrotation Xrotation
				JOINT lfoot    
				{
					OFFSET 0.0000 -38.2947 0.0000
					CHANNELS 3 Zrotation Yrotation Xrotation
					JOINT ltoes    
					{
						OFFSET 0.0000 0.0000 16.6054
						CHANNELS 3 Zrotation Yrotation Xrotation
						End Site
						{
							OFFSET 0.0000 0.0000 5.5351
						}
					}
				}
			}
		}
	}
}
MOTION
Frames: 18
Frame Time: .0333333
22.136 83.248 8.1025 -176.333 -69.5027 -149.708 0 -0 0 5.28159 -29.5135 8.23136 20.3193 -20.2948 -0.00021083 51.631 -3.9751 28.6366 -180 60.1997 -180 -17.6221 6.24941 -0.969597 16.0564 15.3389 7.92065e-05 30.6819 -43.7279 -120.39 0 -3.64759 0 14.8759 -7.66463 -1.0021 7.90406 11.8704 -34.4901 -0.901787 -6.77695 -54.9573 -0 -0 31.9013 3.33674e-06 1.33391 10 0.231699 -3.16399e-06 -70.2157 -23.778 31.2958 -59.006 -0 -0 40.4272 2.45553e-05 14.7799 -5.18423 -1.36567 8.61843e-06 -42.1039 
22.188 83.207 8.1924 -176.738 -69.2586 -149.294 0 -0 0 5.03225 -29.3888 8.67695 20.3855 -20.407 -6.41226e-05 52.0041 -4.31829 28.4461 -180 60.2399 -180 -17.6745 6.23735 -0.970696 15.2045 15.7233 5.46967e-05 30.4343 -44.1301 -114.969 -3.96674e-08 -7.47085 6.07581e-07 13.3079 -6.62875 -0.774182 7.77872 11.7274 -34.4826 -1.04543 -6.82332 -55.1742 -0 -0 32.0477 1.82405e-06 1.5329 9.97821 0.265706 1.43732e-06 -70.2392 -23.9383 31.1771 -59.082 -0 -0 40.5476 1.03509e-05 15.0208 -5.22502 -1.39989 -4.28893e-06 -41.9902 
22.247 83.161 8.2776 -177.152 -69.0342 -148.881 0 -0 0 4.76417 -29.2452 9.13331 20.4305 -20.489 -4.73905e-06 52.4101 -4.6759 28.2604 -180 60.3155 -180 -17.7389 6.20621 -0.969381 14.5012 15.8193 -1.91347e-05 28.9487 -44.1132 -107.915 0 -12.2894 0 12.0269 -5.40288 -0.56959 7.71114 11.5849 -34.3253 -1.18593 -6.87796 -55.3935 -0 -0 32.2245 -4.54036e-06 1.72026 9.94338 0.297095 -9.90415e-07 -70.2593 -24.0633 31.0271 -59.1399 -0 -0 40.6823 8.47998e-06 15.286 -5.26712 -1.43717 1.01267e-05 -41.8551 
22.313 83.111 8.3579 -177.547 -68.8222 -148.495 0 -0 0 4.48668 -29.0859 9.58743 20.4632 -20.5385 -0.000150976 52.8196 -5.03436 28.0821 -180 60.423 -180 -17.8135 6.15361 -0.965323 13.9236 15.646 4.82904e-06 26.641 -43.5203 -100.593 0 -17.6932 0 11.1355 -4.30248 -0.419594 7.70678 11.4475 -34.0175 -1.32144 -6.93096 -55.6196 -0 -0 32.4187 2.4777e-07 1.88987 9.90221 0.325099 2.11135e-06 -70.2791 -24.1626 30.8558 -59.1957 -0 -0 40.8276 -2.31737e-05 15.5652 -5.31225 -1.47726 2.71284e-06 -41.7038 
22.384 83.059 8.4335 -177.915 -68.6321 -148.128 0 -0 0 4.20956 -28.9104 10.0284 20.4905 -20.5549 -4.81924e-05 53.2026 -5.38004 27.9143 -180 60.554 -180 -17.8929 6.07974 -0.957972 13.4202 15.278 0.00017244 24.0138 -42.4323 -93.9261 0 -23.3348 0 10.6354 -3.40944 -0.317403 7.76706 11.3167 -33.5678 -1.4504 -6.97414 -55.8511 -0 -0 32.6248 4.05171e-06 2.03694 9.85941 0.348895 -8.14333e-06 -70.297 -24.2457 30.6736 -59.2621 -0 -0 40.9836 2.50067e-05 15.8447 -5.36228 -1.51925 1.93944e-05 -41.5402 
22.457 83.006 8.5045 -178.237 -68.4532 -147.797 0 -0 0 3.94443 -28.7178 10.4516 20.5237 -20.5429 5.02695e-05 53.5289 -5.6948 27.7595 -180 60.6992 -180 -17.9767 5.9861 -0.947675 12.9536 14.8124 3.91859e-05 21.3713 -41.0526 -88.2494 0 -29.0308 0 10.4905 -2.63896 -0.242297 7.88559 11.1932 -32.9939 -1.56954 -7.00202 -56.0918 -0 -0 32.8316 1.48504e-06 2.15892 9.81981 0.368398 -3.39191e-08 -70.3146 -24.3159 30.4896 -59.3443 -0 -0 41.1446 1.54326e-05 16.1161 -5.41861 -1.56296 1.09201e-05 -41.3675 
22.534 82.951 8.5713 -178.499 -68.295 -147.507 0 -0 0 3.70473 -28.5131 10.8535 20.5588 -20.5051 5.02679e-05 53.7905 -5.96987 27.6228 -180 60.8517 -180 -18.0582 5.88114 -0.935302 12.5208 14.3099 -7.93398e-05 18.7581 -39.5384 -83.4651 0 -34.7458 0 10.6636 -1.84205 -0.171892 8.04745 11.0777 -32.3134 -1.67543 -7.01261 -56.341 -0 -0 33.0354 2.8073e-06 2.25538 9.78522 0.383497 1.14912e-06 -70.3285 -24.3803 30.3097 -59.4561 -0 -0 41.3137 -3.77873e-05 16.3716 -5.48383 -1.60809 -4.95036e-07 -41.1894 
22.612 82.896 8.6343 -178.697 -68.1567 -147.26 0 -0 0 3.50229 -28.3006 11.2319 20.5934 -20.4459 -8.04398e-05 53.9767 -6.20124 27.51 -180 60.9984 -180 -18.1321 5.77267 -0.921906 12.1184 13.8086 1.86445e-06 16.167 -37.9892 -79.4064 -2.74479e-07 -40.4697 7.44609e-07 11.1073 -0.921492 -0.0896006 8.2358 10.9695 -31.55 -1.765 -7.00705 -56.598 -0 -0 33.2326 4.13815e-06 2.32826 9.7562 0.394794 8.3457e-07 -70.3406 -24.4398 30.1386 -59.5992 -0 -0 41.4915 1.12136e-05 16.6028 -5.55928 -1.65458 -4.63867e-07 -41.0056 
22.69 82.841 8.6942 -178.832 -68.0406 -147.055 0 -0 0 3.34453 -28.0838 11.5881 20.6279 -20.3676 3.69198e-05 54.084 -6.38443 27.4252 -180 61.1335 -180 -18.1953 5.66914 -0.90852 11.7261 13.335 -6.03486e-05 13.6026 -36.4696 -75.9243 -3.41879e-07 -46.1757 8.02004e-07 11.7594 0.153498 0.0158003 8.43219 10.8666 -30.726 -1.83536 -6.98942 -56.8622 -0 -0 33.4213 3.49371e-06 2.38149 9.73243 0.402804 -5.77839e-06 -70.3501 -24.4955 29.9759 -59.7735 -0 -0 41.6762 5.66738e-06 16.8086 -5.64523 -1.70213 -7.42691e-06 -40.82 
22.767 82.785 8.7515 -178.908 -67.9507 -146.885 0 -0 0 3.23536 -27.8645 11.9248 20.6593 -20.2751 1.80349e-05 54.114 -6.52661 27.3632 -180 61.2449 -180 -18.2433 5.57982 -0.896613 11.3359 12.883 1.33067e-05 11.0537 -34.9823 -72.8696 0 -51.8479 0 12.5551 1.37041 0.150801 8.62168 10.7651 -29.8621 -1.88494 -6.96645 -57.1361 -0 -0 33.6007 9.25573e-08 2.42011 9.71219 0.408503 6.54157e-06 -70.356 -24.5498 29.8216 -59.9803 -0 -0 41.8689 2.54069e-05 16.9867 -5.7404 -1.75025 -2.80283e-05 -40.6361 
22.844 82.729 8.8068 -178.94 -67.8819 -146.744 0 -0 0 3.17365 -27.6433 12.2395 20.6864 -20.16 9.02609e-05 54.0793 -6.64812 27.3181 -180 61.3234 -180 -18.2729 5.51312 -0.887313 10.9515 12.4039 1.75996e-08 8.48469 -33.4583 -70.0964 -5.40364e-07 -57.496 9.85027e-07 13.4285 2.6938 0.317211 8.7932 10.6586 -28.9788 -1.9132 -6.94608 -57.4139 -0 -0 33.7753 1.74337e-08 2.4501 9.69255 0.412795 -2.43117e-06 -70.3563 -24.6037 29.6726 -60.215 -0 -0 42.0676 -3.42974e-05 17.1396 -5.84362 -1.79842 -2.10991e-05 -40.4536 
22.919 82.673 8.8603 -178.937 -67.8437 -146.618 0 -0 0 3.15512 -27.4189 12.5403 20.7114 -20.0321 0.000200972 53.9805 -6.7492 27.285 -180 61.3681 -180 -18.2837 5.47191 -0.881184 10.5381 11.9148 -4.84122e-05 5.98307 -31.9349 -67.5961 0 -63.0335 0 14.2968 4.01907 0.504206 8.93873 10.5427 -28.0966 -1.91987 -6.93676 -57.6997 -0 -0 33.9461 9.43848e-07 2.47766 9.67122 0.416502 -5.07091e-06 -70.356 -24.6552 29.5245 -60.4701 -0 -0 42.2707 3.28097e-05 17.2658 -5.95178 -1.84602 -1.04377e-05 -40.2775 
22.993 82.617 8.9122 -178.914 -67.8284 -146.505 0 -0 0 3.17335 -27.1929 12.8352 20.7408 -19.9039 2.85915e-05 53.8278 -6.82451 27.2655 -180 61.3718 -180 -18.2799 5.45573 -0.878407 10.06 11.455 -4.04363e-06 3.63178 -30.4937 -65.3745 0 -68.3552 0 15.0826 5.23107 0.693001 9.05329 10.4134 -27.2386 -1.90561 -6.9463 -57.9891 -0 -0 34.1159 -5.51555e-06 2.50775 9.6456 0.420495 -1.94508e-06 -70.3522 -24.7047 29.3732 -60.7401 -0 -0 42.477 -2.35842e-05 17.3723 -6.06187 -1.89222 -2.12872e-05 -40.1091 
23.065 82.561 8.963 -178.889 -67.8428 -146.382 0 -0 0 3.21695 -26.9612 13.1221 20.7629 -19.7557 -0.000138633 53.6462 -6.91894 27.2381 -180 61.3366 -180 -18.2567 5.46872 -0.8794 9.56274 10.8982 6.53607e-06 1.32801 -28.9276 -63.2847 0 -73.5472 -0 15.7411 6.3132 0.873589 9.14264 10.2641 -26.4095 -1.87288 -6.98096 -58.2828 -0 -0 34.291 6.67337e-06 2.54565 9.61144 0.425307 -3.71598e-06 -70.346 -24.7546 29.2162 -61.0196 -0 -0 42.685 -2.07245e-05 17.459 -6.1726 -1.93678 1.62163e-05 -39.9488 
23.135 82.503 9.0123 -178.872 -67.879 -146.248 0 -0 0 3.27791 -26.7267 13.413 20.7869 -19.6122 -9.07386e-05 53.438 -7.00118 27.2153 -180 61.2705 -180 -18.2228 5.5017 -0.88303 8.98909 10.3655 -3.89608e-06 -0.794425 -27.454 -61.4071 0 -78.4593 -0 16.2158 7.1435 1.01898 9.2077 10.0952 -25.633 -1.82319 -7.04455 -58.5819 -0 -0 34.4733 6.20051e-06 2.59352 9.56778 0.431392 -7.9687e-07 -70.3383 -24.8031 29.0492 -61.302 -0 -0 42.8935 6.63345e-08 17.5308 -6.28038 -1.97911 6.06247e-06 -39.7999 
23.204 82.445 9.0603 -178.878 -67.9354 -146.091 0 -0 0 3.34543 -26.4865 13.7123 20.8106 -19.4735 -2.01579e-05 53.2199 -7.0793 27.189 -180 61.1817 -180 -18.1796 5.54961 -0.888615 8.35534 9.83516 4.90549e-06 -2.77244 -26.0402 -59.6777 0 -83.0898 0 16.4917 7.70364 1.11805 9.25802 9.90579 -24.9181 -1.75972 -7.13841 -58.8846 -0 -0 34.6673 1.7588e-06 2.65312 9.51263 0.438801 -1.3453e-07 -70.3302 -24.8531 28.8735 -61.5842 -0 -0 43.1029 1.27643e-05 17.5886 -6.38476 -2.01895 1.46826e-05 -39.6635 
23.274 82.386 9.1065 -178.909 -68.0115 -145.909 0 -0 0 3.40974 -26.2427 14.0214 20.8338 -19.343 1.84405e-05 53.0049 -7.15388 27.1615 -180 61.0758 -180 -18.1327 5.60474 -0.895089 7.6704 9.31699 -7.8768e-07 -4.62858 -24.7005 -58.0609 2.45239e-06 -87.4627 -2.34566e-06 16.5702 7.98788 1.16503 9.30401 9.69631 -24.2731 -1.68525 -7.26111 -59.1942 -0 -0 34.8758 -2.44956e-06 2.72417 9.44526 0.447393 1.41543e-06 -70.3202 -24.9076 28.6906 -61.8648 -0 -0 43.3133 -1.69998e-05 17.6347 -6.48493 -2.05604 1.1523e-05 -39.5396 
23.344 82.325 9.151 -178.969 -68.0969 -145.7 0 -0 0 3.46264 -25.9947 14.342 20.855 -19.2219 -8.12416e-05 52.8006 -7.22324 27.1317 -180 60.9655 -180 -18.0863 5.66006 -0.901563 6.94795 8.81635 -8.70349e-06 -6.39312 -23.4343 -56.5155 180 -88.4427 -180 16.4765 8.01634 1.16253 9.35551 9.46948 -23.703 -1.60308 -7.40855 -59.5121 -0 -0 35.0987 1.98599e-06 2.80544 9.36571 0.456893 -6.97381e-06 -70.3084 -24.969 28.5002 -62.146 -0 -0 43.5221 7.12947e-06 17.6681 -6.58043 -2.09063 -2.42273e-05 -39.4291 
